<svg xmlns="http://www.w3.org/2000/svg" xmlns:xlink="http://www.w3.org/1999/xlink" width="500" zoomAndPan="magnify" viewBox="0 0 375 374.999991" height="500" preserveAspectRatio="xMidYMid meet" version="1.0"><defs><g/></defs><g fill="#000000" fill-opacity="1"><g transform="translate(162.75978, 202.79918)"><g><path d="M 14.40625 -34.105469 C 7.519531 -34.105469 0.714844 -28.558594 0.714844 -21.628906 L 0.714844 -12.054688 C 0.714844 -4.871094 7.519531 0.714844 14.40625 0.714844 C 21.460938 0.714844 28.097656 -4.871094 28.097656 -12.054688 L 28.097656 -21.628906 C 28.097656 -28.558594 21.460938 -34.105469 14.40625 -34.105469 Z M 17.21875 -12.472656 C 17.21875 -11.046875 15.917969 -9.785156 14.40625 -9.785156 C 12.851562 -9.785156 11.632812 -11.046875 11.632812 -12.472656 L 11.632812 -20.875 C 11.632812 -22.386719 12.851562 -23.644531 14.40625 -23.644531 C 15.917969 -23.644531 17.21875 -22.386719 17.21875 -20.875 Z M 17.21875 -12.472656 "/></g></g><g transform="translate(191.57178, 202.79918)"><g><path d="M 25.914062 -33.558594 L 20.621094 -33.558594 C 18.984375 -33.558594 17.554688 -32.214844 17.554688 -30.535156 L 17.554688 -20.664062 L 12.640625 -31.585938 C 12.179688 -32.761719 11.046875 -33.558594 9.742188 -33.558594 L 4.453125 -33.558594 C 2.773438 -33.558594 1.386719 -32.214844 1.386719 -30.535156 L 1.386719 -2.476562 C 1.386719 -0.796875 2.773438 0.546875 4.453125 0.546875 L 9.742188 0.546875 C 11.464844 0.546875 12.808594 -0.796875 12.808594 -2.476562 L 12.808594 -11.929688 L 17.722656 -1.511719 C 18.226562 -0.335938 19.277344 0.546875 20.621094 0.546875 L 25.914062 0.546875 C 27.636719 0.546875 28.980469 -0.796875 28.980469 -2.476562 L 28.980469 -30.535156 C 28.980469 -32.214844 27.636719 -33.558594 25.914062 -33.558594 Z M 25.914062 -33.558594 "/></g></g></g><g fill="#000000" fill-opacity="1"><g transform="translate(221.93777, 202.79918)"><g><path d="M 20.832031 -11.339844 L 12.640625 -11.339844 L 12.640625 -30.199219 C 12.640625 -32.003906 11.046875 -33.601562 9.324219 -33.601562 L 4.453125 -33.601562 C 2.644531 -33.601562 1.386719 -32.003906 1.386719 -30.199219 L 1.386719 -2.773438 C 1.386719 -1.261719 2.351562 0 4.15625 0 L 20.832031 0 C 22.386719 0 23.644531 -1.261719 23.644531 -2.773438 L 23.644531 -8.398438 C 23.644531 -9.953125 22.386719 -11.339844 20.832031 -11.339844 Z M 20.832031 -11.339844 "/></g></g></g><g fill="#000000" fill-opacity="1"><g transform="translate(246.969762, 202.79918)"><g><path d="M 4.367188 0.0429688 L 9.574219 0.0429688 C 11.339844 0.0429688 12.601562 -1.386719 12.601562 -2.980469 L 12.601562 -30.574219 C 12.601562 -32.339844 11.339844 -33.601562 9.574219 -33.601562 L 4.367188 -33.601562 C 2.730469 -33.601562 1.386719 -32.339844 1.386719 -30.574219 L 1.386719 -2.980469 C 1.386719 -1.386719 2.730469 0.0429688 4.367188 0.0429688 Z M 4.367188 0.0429688 "/></g></g></g><g fill="#000000" fill-opacity="1"><g transform="translate(260.955758, 202.79918)"><g><path d="M 25.914062 -33.558594 L 20.621094 -33.558594 C 18.984375 -33.558594 17.554688 -32.214844 17.554688 -30.535156 L 17.554688 -20.664062 L 12.640625 -31.585938 C 12.179688 -32.761719 11.046875 -33.558594 9.742188 -33.558594 L 4.453125 -33.558594 C 2.773438 -33.558594 1.386719 -32.214844 1.386719 -30.535156 L 1.386719 -2.476562 C 1.386719 -0.796875 2.773438 0.546875 4.453125 0.546875 L 9.742188 0.546875 C 11.464844 0.546875 12.808594 -0.796875 12.808594 -2.476562 L 12.808594 -11.929688 L 17.722656 -1.511719 C 18.226562 -0.335938 19.277344 0.546875 20.621094 0.546875 L 25.914062 0.546875 C 27.636719 0.546875 28.980469 -0.796875 28.980469 -2.476562 L 28.980469 -30.535156 C 28.980469 -32.214844 27.636719 -33.558594 25.914062 -33.558594 Z M 25.914062 -33.558594 "/></g></g></g><g fill="#000000" fill-opacity="1"><g transform="translate(291.321749, 202.79918)"><g><path d="M 13.105469 -24.484375 L 21.628906 -24.484375 C 22.847656 -24.484375 23.855469 -25.492188 23.855469 -26.671875 L 23.855469 -31.375 C 23.855469 -32.59375 22.847656 -33.558594 21.628906 -33.558594 L 4.453125 -33.558594 C 2.730469 -33.558594 1.386719 -32.214844 1.386719 -31.246094 L 1.386719 -3.90625 C 1.386719 -1.429688 2.730469 -0.0859375 4.453125 -0.0859375 L 21.628906 -0.0859375 C 22.847656 -0.0859375 23.855469 -1.050781 23.855469 -2.269531 L 23.855469 -6.972656 C 23.855469 -8.191406 22.847656 -9.238281 21.628906 -9.238281 L 13.105469 -9.238281 C 12.9375 -9.238281 12.808594 -9.367188 12.808594 -9.535156 L 12.808594 -12.222656 C 12.808594 -12.390625 12.9375 -12.515625 13.105469 -12.515625 L 19.277344 -12.515625 C 20.371094 -12.515625 21.292969 -13.398438 21.292969 -14.53125 L 21.292969 -19.109375 C 21.292969 -20.203125 20.371094 -21.125 19.277344 -21.125 L 13.105469 -21.125 C 12.9375 -21.125 12.808594 -21.253906 12.808594 -21.378906 L 12.808594 -24.148438 C 12.808594 -24.277344 12.9375 -24.484375 13.105469 -24.484375 Z M 13.105469 -24.484375 "/></g></g></g><path stroke-linecap="butt" transform="matrix(0.75, 0, 0, 0.75, 160.114038, 168.749989)" fill="none" stroke-linejoin="miter" d="M 24.660451 -1.473944 C 15.47295 -1.473944 6.41045 5.92189 6.41045 15.166682 L 6.41045 27.921892 C 6.41045 37.505226 15.47295 44.958351 24.660451 44.958351 C 34.066702 44.958351 42.915661 37.505226 42.915661 27.921892 L 42.915661 15.166682 C 42.915661 5.92189 34.066702 -1.473944 24.660451 -1.473944 Z M 28.410451 27.359392 C 28.410451 29.276058 26.670868 30.95835 24.660451 30.95835 C 22.582326 30.95835 20.972951 29.276058 20.972951 27.359392 L 20.972951 16.161474 C 20.972951 14.156266 22.582326 12.473974 24.660451 12.473974 C 26.670868 12.473974 28.410451 14.156266 28.410451 16.161474 Z M 78.415663 -0.749985 L 71.363579 -0.749985 C 69.176079 -0.749985 67.275037 1.041682 67.275037 3.286473 L 67.275037 16.453141 L 60.728162 1.89064 C 60.113578 0.317723 58.592745 -0.749985 56.85837 -0.749985 L 49.801078 -0.749985 C 47.561494 -0.749985 45.712536 1.041682 45.712536 3.286473 L 45.712536 40.692726 C 45.712536 42.932309 47.561494 44.723976 49.801078 44.723976 L 56.85837 44.723976 C 59.155245 44.723976 60.946912 42.932309 60.946912 40.692726 L 60.946912 28.098975 L 67.509412 41.989601 C 68.176079 43.546893 69.571912 44.723976 71.363579 44.723976 L 78.415663 44.723976 C 80.712538 44.723976 82.504205 42.932309 82.504205 40.692726 L 82.504205 3.286473 C 82.504205 1.041682 80.712538 -0.749985 78.415663 -0.749985 Z M 112.139623 28.880225 L 101.212539 28.880225 L 101.212539 3.73439 C 101.212539 1.32814 99.082331 -0.802069 96.785456 -0.802069 L 90.290664 -0.802069 C 87.884413 -0.802069 86.202122 1.32814 86.202122 3.73439 L 86.202122 40.307309 C 86.202122 42.317726 87.48858 44.000018 89.910455 44.000018 L 112.139623 44.000018 C 114.202124 44.000018 115.884415 42.317726 115.884415 40.307309 L 115.884415 32.8021 C 115.884415 30.723975 114.202124 28.880225 112.139623 28.880225 Z M 123.556291 44.052101 L 130.504208 44.052101 C 132.853166 44.052101 134.535458 42.156268 134.535458 40.020851 L 134.535458 3.229182 C 134.535458 0.880223 132.853166 -0.802069 130.504208 -0.802069 L 123.556291 -0.802069 C 121.368791 -0.802069 119.577124 0.880223 119.577124 3.229182 L 119.577124 40.020851 C 119.577124 42.156268 121.368791 44.052101 123.556291 44.052101 Z M 170.931294 -0.749985 L 163.874002 -0.749985 C 161.686502 -0.749985 159.78546 1.041682 159.78546 3.286473 L 159.78546 16.453141 L 153.238584 1.89064 C 152.624001 0.317723 151.103168 -0.749985 149.368792 -0.749985 L 142.316709 -0.749985 C 140.071917 -0.749985 138.228167 1.041682 138.228167 3.286473 L 138.228167 40.692726 C 138.228167 42.932309 140.071917 44.723976 142.316709 44.723976 L 149.368792 44.723976 C 151.665668 44.723976 153.457334 42.932309 153.457334 40.692726 L 153.457334 28.098975 L 160.019835 41.989601 C 160.69171 43.546893 162.082335 44.723976 163.874002 44.723976 L 170.931294 44.723976 C 173.228169 44.723976 175.019836 42.932309 175.019836 40.692726 L 175.019836 3.286473 C 175.019836 1.041682 173.228169 -0.749985 170.931294 -0.749985 Z M 194.342754 11.348974 L 205.70213 11.348974 C 207.332338 11.348974 208.681296 10.010432 208.681296 8.437515 L 208.681296 2.161473 C 208.681296 0.552098 207.332338 -0.749985 205.70213 -0.749985 L 182.801086 -0.749985 C 180.504211 -0.749985 178.712544 1.041682 178.712544 2.343765 L 178.712544 38.791684 C 178.712544 42.098976 180.504211 43.890643 182.801086 43.890643 L 205.70213 43.890643 C 207.332338 43.890643 208.681296 42.604184 208.681296 40.979184 L 208.681296 34.703142 C 208.681296 33.078142 207.332338 31.682309 205.70213 31.682309 L 194.342754 31.682309 C 194.124004 31.682309 193.94692 31.515642 193.94692 31.286475 L 193.94692 27.703142 C 193.94692 27.484392 194.124004 27.307308 194.342754 27.307308 L 202.571921 27.307308 C 204.035463 27.307308 205.264629 26.130225 205.264629 24.625016 L 205.264629 18.515641 C 205.264629 17.067724 204.035463 15.833349 202.571921 15.833349 L 194.342754 15.833349 C 194.124004 15.833349 193.94692 15.656266 193.94692 15.494807 L 193.94692 11.802099 C 193.94692 11.640641 194.124004 11.348974 194.342754 11.348974 Z M 194.342754 11.348974 " stroke="#ff66c4" stroke-width="0.91" stroke-opacity="1" stroke-miterlimit="4"/><g fill="#ff0000" fill-opacity="1"><g transform="translate(96.862319, 202.79918)"><g><path d="M 23.519531 -19.738281 L 16.003906 -19.738281 C 16.003906 -19.738281 15.121094 -19.738281 14.53125 -19.109375 C 14.027344 -18.605469 13.859375 -17.976562 13.859375 -17.597656 L 13.859375 -15.960938 C 13.859375 -14.824219 14.910156 -13.984375 16.042969 -13.984375 L 17.136719 -13.984375 L 17.136719 -12.640625 C 17.136719 -10.878906 15.707031 -9.703125 13.945312 -9.703125 C 12.222656 -9.703125 10.792969 -11.128906 10.792969 -12.851562 L 10.792969 -20.789062 C 10.792969 -22.261719 12.011719 -23.941406 13.945312 -23.941406 C 15.078125 -23.941406 16.085938 -23.308594 16.546875 -22.554688 C 16.84375 -22.132812 17.09375 -22.09375 17.386719 -22.09375 L 24.78125 -22.09375 C 24.988281 -22.09375 25.660156 -22.132812 26.207031 -22.679688 C 26.839844 -23.269531 26.839844 -23.898438 26.839844 -24.148438 L 26.839844 -24.652344 C 26.839844 -25.242188 25.871094 -28.265625 23.855469 -30.367188 C 21.925781 -32.382812 19.066406 -34.105469 14.785156 -34.105469 L 12.558594 -34.105469 C 8.945312 -34.105469 5.460938 -32.296875 3.445312 -29.863281 C 1.636719 -27.636719 0.714844 -24.90625 0.714844 -22.429688 L 0.714844 -11.214844 C 0.714844 -8.148438 1.933594 -5.460938 3.402344 -3.738281 C 6.46875 -0.125 10.332031 0.546875 12.054688 0.546875 L 15.328125 0.546875 C 18.898438 0.546875 22.21875 -1.21875 23.941406 -3.191406 C 25.828125 -5.335938 27.089844 -7.9375 27.089844 -11.214844 L 27.089844 -14.992188 C 27.089844 -17.933594 25.492188 -19.738281 23.519531 -19.738281 Z M 23.519531 -19.738281 "/></g></g></g><g fill="#ff0000" fill-opacity="1"><g transform="translate(124.66631, 202.79918)"><g><path d="M 14.40625 -34.105469 C 7.519531 -34.105469 0.714844 -28.558594 0.714844 -21.628906 L 0.714844 -12.054688 C 0.714844 -4.871094 7.519531 0.714844 14.40625 0.714844 C 21.460938 0.714844 28.097656 -4.871094 28.097656 -12.054688 L 28.097656 -21.628906 C 28.097656 -28.558594 21.460938 -34.105469 14.40625 -34.105469 Z M 17.21875 -12.472656 C 17.21875 -11.046875 15.917969 -9.785156 14.40625 -9.785156 C 12.851562 -9.785156 11.632812 -11.046875 11.632812 -12.472656 L 11.632812 -20.875 C 11.632812 -22.386719 12.851562 -23.644531 14.40625 -23.644531 C 15.917969 -23.644531 17.21875 -22.386719 17.21875 -20.875 Z M 17.21875 -12.472656 "/></g></g></g><path stroke-linecap="butt" transform="matrix(0.75, 0, 0, 0.75, 52.884541, 168.749989)" fill="none" stroke-linejoin="miter" d="M 91.924785 17.682308 L 81.903951 17.682308 C 81.903951 17.682308 80.726867 17.682308 79.935201 18.515641 C 79.263326 19.187516 79.044575 20.031266 79.044575 20.536474 L 79.044575 22.723975 C 79.044575 24.229183 80.440409 25.348975 81.961242 25.348975 L 83.409159 25.348975 L 83.409159 27.140642 C 83.409159 29.494808 81.508117 31.067725 79.15395 31.067725 C 76.857075 31.067725 74.961242 29.166683 74.961242 26.869808 L 74.961242 16.270849 C 74.961242 14.317724 76.570617 12.078141 79.15395 12.078141 C 80.659159 12.078141 82.013326 12.921891 82.627909 13.921891 C 83.013326 14.484391 83.351867 14.552099 83.747701 14.552099 L 93.607076 14.552099 C 93.883118 14.552099 94.78416 14.484391 95.508118 13.755224 C 96.341452 12.979182 96.341452 12.130224 96.341452 11.802099 L 96.341452 11.130224 C 96.341452 10.338557 95.054993 6.307307 92.37791 3.51564 C 89.794576 0.822931 85.992493 -1.473944 80.278951 -1.473944 L 77.3102 -1.473944 C 72.482075 -1.473944 67.836241 0.932307 65.15395 4.187515 C 62.747699 7.156265 61.518533 10.791682 61.518533 14.098974 L 61.518533 29.041683 C 61.518533 33.130225 63.133116 36.723976 65.101866 39.010434 C 69.190408 43.833351 74.34145 44.723976 76.638325 44.723976 L 81.002909 44.723976 C 85.758118 44.723976 90.19041 42.375018 92.487285 39.750017 C 95.00291 36.890642 96.685202 33.416684 96.685202 29.041683 L 96.685202 24.010433 C 96.685202 20.088558 94.549785 17.682308 91.924785 17.682308 Z M 116.841453 -1.473944 C 107.653952 -1.473944 98.591452 5.92189 98.591452 15.166682 L 98.591452 27.921892 C 98.591452 37.505226 107.653952 44.958351 116.841453 44.958351 C 126.247704 44.958351 135.096663 37.505226 135.096663 27.921892 L 135.096663 15.166682 C 135.096663 5.92189 126.247704 -1.473944 116.841453 -1.473944 Z M 120.591453 27.359392 C 120.591453 29.276058 118.85187 30.95835 116.841453 30.95835 C 114.763328 30.95835 113.153953 29.276058 113.153953 27.359392 L 113.153953 16.161474 C 113.153953 14.156266 114.763328 12.473974 116.841453 12.473974 C 118.85187 12.473974 120.591453 14.156266 120.591453 16.161474 Z M 120.591453 27.359392 " stroke="#ff0000" stroke-width="0.91" stroke-opacity="1" stroke-miterlimit="4"/></svg>